<?xml version="1.0" encoding="utf-8" standalone="no"?>
<!DOCTYPE svg PUBLIC "-//W3C//DTD SVG 1.1//EN"
  "http://www.w3.org/Graphics/SVG/1.1/DTD/svg11.dtd">
<!-- Created with matplotlib (https://matplotlib.org/) -->
<svg height="432pt" version="1.1" viewBox="0 0 432 432" width="432pt" xmlns="http://www.w3.org/2000/svg" xmlns:xlink="http://www.w3.org/1999/xlink">
 <defs>
  <style type="text/css">
*{stroke-linecap:butt;stroke-linejoin:round;}
  </style>
 </defs>
 <g id="figure_1">
  <g id="patch_1">
   <path d="M 0 432 
L 432 432 
L 432 0 
L 0 0 
z
" style="fill:#ffffff;"/>
  </g>
  <g id="axes_1">
   <g id="patch_2">
    <path d="M 54 378 
L 388.8 378 
L 388.8 51.84 
L 54 51.84 
z
" style="fill:#ffffff;"/>
   </g>
   <g id="PathCollection_1">
    <defs>
     <path d="M 0 3 
C 0.795609 3 1.55874 2.683901 2.12132 2.12132 
C 2.683901 1.55874 3 0.795609 3 0 
C 3 -0.795609 2.683901 -1.55874 2.12132 -2.12132 
C 1.55874 -2.683901 0.795609 -3 0 -3 
C -0.795609 -3 -1.55874 -2.683901 -2.12132 -2.12132 
C -2.683901 -1.55874 -3 -0.795609 -3 0 
C -3 0.795609 -2.683901 1.55874 -2.12132 2.12132 
C -1.55874 2.683901 -0.795609 3 0 3 
z
" id="mf1e48e4735" style="stroke:#1f77b4;"/>
    </defs>
    <g clip-path="url(#p0249d6cf8a)">
     <use style="fill:#1f77b4;stroke:#1f77b4;" x="94.946185" xlink:href="#mf1e48e4735" y="188.301285"/>
     <use style="fill:#1f77b4;stroke:#1f77b4;" x="104.061656" xlink:href="#mf1e48e4735" y="251.668483"/>
     <use style="fill:#1f77b4;stroke:#1f77b4;" x="90.008662" xlink:href="#mf1e48e4735" y="233.428206"/>
     <use style="fill:#1f77b4;stroke:#1f77b4;" x="93.225631" xlink:href="#mf1e48e4735" y="247.455256"/>
     <use style="fill:#1f77b4;stroke:#1f77b4;" x="88.737989" xlink:href="#mf1e48e4735" y="179.142932"/>
     <use style="fill:#1f77b4;stroke:#1f77b4;" x="104.326089" xlink:href="#mf1e48e4735" y="132.895571"/>
     <use style="fill:#1f77b4;stroke:#1f77b4;" x="86.049774" xlink:href="#mf1e48e4735" y="212.040504"/>
     <use style="fill:#1f77b4;stroke:#1f77b4;" x="96.526552" xlink:href="#mf1e48e4735" y="202.404763"/>
     <use style="fill:#1f77b4;stroke:#1f77b4;" x="91.476559" xlink:href="#mf1e48e4735" y="275.891495"/>
     <use style="fill:#1f77b4;stroke:#1f77b4;" x="98.933591" xlink:href="#mf1e48e4735" y="240.406719"/>
     <use style="fill:#1f77b4;stroke:#1f77b4;" x="99.827473" xlink:href="#mf1e48e4735" y="157.354269"/>
     <use style="fill:#1f77b4;stroke:#1f77b4;" x="91.898723" xlink:href="#mf1e48e4735" y="207.349888"/>
     <use style="fill:#1f77b4;stroke:#1f77b4;" x="97.240754" xlink:href="#mf1e48e4735" y="254.663052"/>
     <use style="fill:#1f77b4;stroke:#1f77b4;" x="76.66987" xlink:href="#mf1e48e4735" y="267.446218"/>
     <use style="fill:#1f77b4;stroke:#1f77b4;" x="98.218587" xlink:href="#mf1e48e4735" y="112.533059"/>
     <use style="fill:#1f77b4;stroke:#1f77b4;" x="95.069629" xlink:href="#mf1e48e4735" y="67.170452"/>
     <use style="fill:#1f77b4;stroke:#1f77b4;" x="97.779681" xlink:href="#mf1e48e4735" y="133.201282"/>
     <use style="fill:#1f77b4;stroke:#1f77b4;" x="98.634872" xlink:href="#mf1e48e4735" y="187.817492"/>
     <use style="fill:#1f77b4;stroke:#1f77b4;" x="113.11003" xlink:href="#mf1e48e4735" y="137.516163"/>
     <use style="fill:#1f77b4;stroke:#1f77b4;" x="91.043532" xlink:href="#mf1e48e4735" y="152.733678"/>
     <use style="fill:#1f77b4;stroke:#1f77b4;" x="112.328619" xlink:href="#mf1e48e4735" y="192.208801"/>
     <use style="fill:#1f77b4;stroke:#1f77b4;" x="97.808199" xlink:href="#mf1e48e4735" y="163.919014"/>
     <use style="fill:#1f77b4;stroke:#1f77b4;" x="69.662718" xlink:href="#mf1e48e4735" y="189.491749"/>
     <use style="fill:#1f77b4;stroke:#1f77b4;" x="117.074012" xlink:href="#mf1e48e4735" y="209.958882"/>
     <use style="fill:#1f77b4;stroke:#1f77b4;" x="96.80853" xlink:href="#mf1e48e4735" y="207.120605"/>
     <use style="fill:#1f77b4;stroke:#1f77b4;" x="110.467076" xlink:href="#mf1e48e4735" y="249.004851"/>
     <use style="fill:#1f77b4;stroke:#1f77b4;" x="105.540527" xlink:href="#mf1e48e4735" y="201.36075"/>
     <use style="fill:#1f77b4;stroke:#1f77b4;" x="99.715003" xlink:href="#mf1e48e4735" y="185.714081"/>
     <use style="fill:#1f77b4;stroke:#1f77b4;" x="101.154381" xlink:href="#mf1e48e4735" y="197.459637"/>
     <use style="fill:#1f77b4;stroke:#1f77b4;" x="94.918469" xlink:href="#mf1e48e4735" y="233.198923"/>
     <use style="fill:#1f77b4;stroke:#1f77b4;" x="101.126665" xlink:href="#mf1e48e4735" y="242.357275"/>
     <use style="fill:#1f77b4;stroke:#1f77b4;" x="116.432787" xlink:href="#mf1e48e4735" y="191.394071"/>
     <use style="fill:#1f77b4;stroke:#1f77b4;" x="77.570433" xlink:href="#mf1e48e4735" y="116.183099"/>
     <use style="fill:#1f77b4;stroke:#1f77b4;" x="85.943184" xlink:href="#mf1e48e4735" y="96.574275"/>
     <use style="fill:#1f77b4;stroke:#1f77b4;" x="102.622278" xlink:href="#mf1e48e4735" y="239.922926"/>
     <use style="fill:#1f77b4;stroke:#1f77b4;" x="97.768707" xlink:href="#mf1e48e4735" y="225.972303"/>
     <use style="fill:#1f77b4;stroke:#1f77b4;" x="105.838445" xlink:href="#mf1e48e4735" y="178.334606"/>
     <use style="fill:#1f77b4;stroke:#1f77b4;" x="81.917087" xlink:href="#mf1e48e4735" y="182.137501"/>
     <use style="fill:#1f77b4;stroke:#1f77b4;" x="86.763976" xlink:href="#mf1e48e4735" y="264.298793"/>
     <use style="fill:#1f77b4;stroke:#1f77b4;" x="99.658768" xlink:href="#mf1e48e4735" y="199.893986"/>
     <use style="fill:#1f77b4;stroke:#1f77b4;" x="93.866054" xlink:href="#mf1e48e4735" y="190.404696"/>
     <use style="fill:#1f77b4;stroke:#1f77b4;" x="115.116742" xlink:href="#mf1e48e4735" y="342.988127"/>
     <use style="fill:#1f77b4;stroke:#1f77b4;" x="80.612015" xlink:href="#mf1e48e4735" y="240.960535"/>
     <use style="fill:#1f77b4;stroke:#1f77b4;" x="109.84192" xlink:href="#mf1e48e4735" y="188.724036"/>
     <use style="fill:#1f77b4;stroke:#1f77b4;" x="101.278627" xlink:href="#mf1e48e4735" y="151.944175"/>
     <use style="fill:#1f77b4;stroke:#1f77b4;" x="104.618127" xlink:href="#mf1e48e4735" y="253.695467"/>
     <use style="fill:#1f77b4;stroke:#1f77b4;" x="88.991448" xlink:href="#mf1e48e4735" y="153.141043"/>
     <use style="fill:#1f77b4;stroke:#1f77b4;" x="88.513049" xlink:href="#mf1e48e4735" y="235.862555"/>
     <use style="fill:#1f77b4;stroke:#1f77b4;" x="96.695257" xlink:href="#mf1e48e4735" y="159.865046"/>
     <use style="fill:#1f77b4;stroke:#1f77b4;" x="97.96593" xlink:href="#mf1e48e4735" y="214.150319"/>
    </g>
   </g>
   <g id="PathCollection_2">
    <defs>
     <path d="M 0 3 
C 0.795609 3 1.55874 2.683901 2.12132 2.12132 
C 2.683901 1.55874 3 0.795609 3 0 
C 3 -0.795609 2.683901 -1.55874 2.12132 -2.12132 
C 1.55874 -2.683901 0.795609 -3 0 -3 
C -0.795609 -3 -1.55874 -2.683901 -2.12132 -2.12132 
C -2.683901 -1.55874 -3 -0.795609 -3 0 
C -3 0.795609 -2.683901 1.55874 -2.12132 2.12132 
C -1.55874 2.683901 -0.795609 3 0 3 
z
" id="m204f18f065" style="stroke:#ff7f0e;"/>
    </defs>
    <g clip-path="url(#p0249d6cf8a)">
     <use style="fill:#ff7f0e;stroke:#ff7f0e;" x="261.958331" xlink:href="#m204f18f065" y="167.276296"/>
     <use style="fill:#ff7f0e;stroke:#ff7f0e;" x="243.58052" xlink:href="#m204f18f065" y="182.010019"/>
     <use style="fill:#ff7f0e;stroke:#ff7f0e;" x="268.863986" xlink:href="#m204f18f065" y="180.819554"/>
     <use style="fill:#ff7f0e;stroke:#ff7f0e;" x="227.51402" xlink:href="#m204f18f065" y="310.978892"/>
     <use style="fill:#ff7f0e;stroke:#ff7f0e;" x="260.653259" xlink:href="#m204f18f065" y="226.09933"/>
     <use style="fill:#ff7f0e;stroke:#ff7f0e;" x="226.58156" xlink:href="#m204f18f065" y="247.229556"/>
     <use style="fill:#ff7f0e;stroke:#ff7f0e;" x="244.334214" xlink:href="#m204f18f065" y="172.215018"/>
     <use style="fill:#ff7f0e;stroke:#ff7f0e;" x="183.122472" xlink:href="#m204f18f065" y="316.360793"/>
     <use style="fill:#ff7f0e;stroke:#ff7f0e;" x="253.332121" xlink:href="#m204f18f065" y="212.88701"/>
     <use style="fill:#ff7f0e;stroke:#ff7f0e;" x="207.865536" xlink:href="#m204f18f065" y="271.42734"/>
     <use style="fill:#ff7f0e;stroke:#ff7f0e;" x="201.831814" xlink:href="#m204f18f065" y="360.373677"/>
     <use style="fill:#ff7f0e;stroke:#ff7f0e;" x="229.161596" xlink:href="#m204f18f065" y="218.131442"/>
     <use style="fill:#ff7f0e;stroke:#ff7f0e;" x="235.185019" xlink:href="#m204f18f065" y="311.545515"/>
     <use style="fill:#ff7f0e;stroke:#ff7f0e;" x="242.996332" xlink:href="#m204f18f065" y="224.880673"/>
     <use style="fill:#ff7f0e;stroke:#ff7f0e;" x="205.643944" xlink:href="#m204f18f065" y="238.759051"/>
     <use style="fill:#ff7f0e;stroke:#ff7f0e;" x="250.727858" xlink:href="#m204f18f065" y="186.707038"/>
     <use style="fill:#ff7f0e;stroke:#ff7f0e;" x="224.674756" xlink:href="#m204f18f065" y="225.434489"/>
     <use style="fill:#ff7f0e;stroke:#ff7f0e;" x="215.177288" xlink:href="#m204f18f065" y="258.144996"/>
     <use style="fill:#ff7f0e;stroke:#ff7f0e;" x="268.075893" xlink:href="#m204f18f065" y="303.722862"/>
     <use style="fill:#ff7f0e;stroke:#ff7f0e;" x="215.4803" xlink:href="#m204f18f065" y="286.17387"/>
     <use style="fill:#ff7f0e;stroke:#ff7f0e;" x="243.895308" xlink:href="#m204f18f065" y="192.883241"/>
     <use style="fill:#ff7f0e;stroke:#ff7f0e;" x="230.927411" xlink:href="#m204f18f065" y="237.568587"/>
     <use style="fill:#ff7f0e;stroke:#ff7f0e;" x="268.526576" xlink:href="#m204f18f065" y="265.898988"/>
     <use style="fill:#ff7f0e;stroke:#ff7f0e;" x="238.69494" xlink:href="#m204f18f065" y="237.517387"/>
     <use style="fill:#ff7f0e;stroke:#ff7f0e;" x="242.157884" xlink:href="#m204f18f065" y="218.137846"/>
     <use style="fill:#ff7f0e;stroke:#ff7f0e;" x="250.671623" xlink:href="#m204f18f065" y="200.886943"/>
     <use style="fill:#ff7f0e;stroke:#ff7f0e;" x="269.634424" xlink:href="#m204f18f065" y="218.897938"/>
     <use style="fill:#ff7f0e;stroke:#ff7f0e;" x="274.689511" xlink:href="#m204f18f065" y="196.466224"/>
     <use style="fill:#ff7f0e;stroke:#ff7f0e;" x="240.279599" xlink:href="#m204f18f065" y="227.060512"/>
     <use style="fill:#ff7f0e;stroke:#ff7f0e;" x="205.30144" xlink:href="#m204f18f065" y="272.783467"/>
     <use style="fill:#ff7f0e;stroke:#ff7f0e;" x="213.787463" xlink:href="#m204f18f065" y="300.430203"/>
     <use style="fill:#ff7f0e;stroke:#ff7f0e;" x="208.462174" xlink:href="#m204f18f065" y="300.990423"/>
     <use style="fill:#ff7f0e;stroke:#ff7f0e;" x="219.281456" xlink:href="#m204f18f065" y="257.330266"/>
     <use style="fill:#ff7f0e;stroke:#ff7f0e;" x="259.939859" xlink:href="#m204f18f065" y="249.456412"/>
     <use style="fill:#ff7f0e;stroke:#ff7f0e;" x="218.410325" xlink:href="#m204f18f065" y="230.456042"/>
     <use style="fill:#ff7f0e;stroke:#ff7f0e;" x="228.588383" xlink:href="#m204f18f065" y="168.231074"/>
     <use style="fill:#ff7f0e;stroke:#ff7f0e;" x="259.326351" xlink:href="#m204f18f065" y="185.993963"/>
     <use style="fill:#ff7f0e;stroke:#ff7f0e;" x="259.118153" xlink:href="#m204f18f065" y="290.586969"/>
     <use style="fill:#ff7f0e;stroke:#ff7f0e;" x="210.750975" xlink:href="#m204f18f065" y="226.707785"/>
     <use style="fill:#ff7f0e;stroke:#ff7f0e;" x="221.362059" xlink:href="#m204f18f065" y="287.640634"/>
     <use style="fill:#ff7f0e;stroke:#ff7f0e;" x="221.143801" xlink:href="#m204f18f065" y="276.149587"/>
     <use style="fill:#ff7f0e;stroke:#ff7f0e;" x="238.28375" xlink:href="#m204f18f065" y="213.287971"/>
     <use style="fill:#ff7f0e;stroke:#ff7f0e;" x="223.994039" xlink:href="#m204f18f065" y="268.922967"/>
     <use style="fill:#ff7f0e;stroke:#ff7f0e;" x="189.330668" xlink:href="#m204f18f065" y="325.519145"/>
     <use style="fill:#ff7f0e;stroke:#ff7f0e;" x="221.615518" xlink:href="#m204f18f065" y="261.638744"/>
     <use style="fill:#ff7f0e;stroke:#ff7f0e;" x="211.831106" xlink:href="#m204f18f065" y="224.604373"/>
     <use style="fill:#ff7f0e;stroke:#ff7f0e;" x="218.595773" xlink:href="#m204f18f065" y="235.789709"/>
     <use style="fill:#ff7f0e;stroke:#ff7f0e;" x="235.893453" xlink:href="#m204f18f065" y="223.159399"/>
     <use style="fill:#ff7f0e;stroke:#ff7f0e;" x="185.089803" xlink:href="#m204f18f065" y="299.415601"/>
     <use style="fill:#ff7f0e;stroke:#ff7f0e;" x="220.035151" xlink:href="#m204f18f065" y="247.535266"/>
    </g>
   </g>
   <g id="PathCollection_3">
    <defs>
     <path d="M 0 3 
C 0.795609 3 1.55874 2.683901 2.12132 2.12132 
C 2.683901 1.55874 3 0.795609 3 0 
C 3 -0.795609 2.683901 -1.55874 2.12132 -2.12132 
C 1.55874 -2.683901 0.795609 -3 0 -3 
C -0.795609 -3 -1.55874 -2.683901 -2.12132 -2.12132 
C -2.683901 -1.55874 -3 -0.795609 -3 0 
C -3 0.795609 -2.683901 1.55874 -2.12132 2.12132 
C -1.55874 2.683901 -0.795609 3 0 3 
z
" id="m9085005843" style="stroke:#2ca02c;"/>
    </defs>
    <g clip-path="url(#p0249d6cf8a)">
     <use style="fill:#2ca02c;stroke:#2ca02c;" x="298.808221" xlink:href="#m9085005843" y="166.867328"/>
     <use style="fill:#2ca02c;stroke:#2ca02c;" x="264.741488" xlink:href="#m9085005843" y="253.026588"/>
     <use style="fill:#2ca02c;stroke:#2ca02c;" x="316.702538" xlink:href="#m9085005843" y="183.800099"/>
     <use style="fill:#2ca02c;stroke:#2ca02c;" x="278.744929" xlink:href="#m9085005843" y="217.236101"/>
     <use style="fill:#2ca02c;stroke:#2ca02c;" x="299.96133" xlink:href="#m9085005843" y="198.457394"/>
     <use style="fill:#2ca02c;stroke:#2ca02c;" x="343.819831" xlink:href="#m9085005843" y="170.711223"/>
     <use style="fill:#2ca02c;stroke:#2ca02c;" x="225.506523" xlink:href="#m9085005843" y="300.387985"/>
     <use style="fill:#2ca02c;stroke:#2ca02c;" x="321.523299" xlink:href="#m9085005843" y="191.593342"/>
     <use style="fill:#2ca02c;stroke:#2ca02c;" x="306.850917" xlink:href="#m9085005843" y="253.716656"/>
     <use style="fill:#2ca02c;stroke:#2ca02c;" x="319.406821" xlink:href="#m9085005843" y="109.186524"/>
     <use style="fill:#2ca02c;stroke:#2ca02c;" x="274.975781" xlink:href="#m9085005843" y="176.621714"/>
     <use style="fill:#2ca02c;stroke:#2ca02c;" x="286.807985" xlink:href="#m9085005843" y="237.809073"/>
     <use style="fill:#2ca02c;stroke:#2ca02c;" x="300.759483" xlink:href="#m9085005843" y="191.638139"/>
     <use style="fill:#2ca02c;stroke:#2ca02c;" x="269.813317" xlink:href="#m9085005843" y="278.468257"/>
     <use style="fill:#2ca02c;stroke:#2ca02c;" x="280.10894" xlink:href="#m9085005843" y="238.938496"/>
     <use style="fill:#2ca02c;stroke:#2ca02c;" x="286.182829" xlink:href="#m9085005843" y="177.528258"/>
     <use style="fill:#2ca02c;stroke:#2ca02c;" x="280.296777" xlink:href="#m9085005843" y="200.621847"/>
     <use style="fill:#2ca02c;stroke:#2ca02c;" x="327.669492" xlink:href="#m9085005843" y="74.287195"/>
     <use style="fill:#2ca02c;stroke:#2ca02c;" x="371.543148" xlink:href="#m9085005843" y="213.680095"/>
     <use style="fill:#2ca02c;stroke:#2ca02c;" x="269.994473" xlink:href="#m9085005843" y="308.362277"/>
     <use style="fill:#2ca02c;stroke:#2ca02c;" x="308.390315" xlink:href="#m9085005843" y="164.668665"/>
     <use style="fill:#2ca02c;stroke:#2ca02c;" x="255.816558" xlink:href="#m9085005843" y="246.048074"/>
     <use style="fill:#2ca02c;stroke:#2ca02c;" x="351.051923" xlink:href="#m9085005843" y="191.94607"/>
     <use style="fill:#2ca02c;stroke:#2ca02c;" x="273.440675" xlink:href="#m9085005843" y="241.109352"/>
     <use style="fill:#2ca02c;stroke:#2ca02c;" x="291.672531" xlink:href="#m9085005843" y="158.988674"/>
     <use style="fill:#2ca02c;stroke:#2ca02c;" x="304.253336" xlink:href="#m9085005843" y="159.326015"/>
     <use style="fill:#2ca02c;stroke:#2ca02c;" x="265.595876" xlink:href="#m9085005843" y="232.027427"/>
     <use style="fill:#2ca02c;stroke:#2ca02c;" x="257.948302" xlink:href="#m9085005843" y="211.123518"/>
     <use style="fill:#2ca02c;stroke:#2ca02c;" x="296.019184" xlink:href="#m9085005843" y="224.943076"/>
     <use style="fill:#2ca02c;stroke:#2ca02c;" x="299.754719" xlink:href="#m9085005843" y="183.784713"/>
     <use style="fill:#2ca02c;stroke:#2ca02c;" x="328.146977" xlink:href="#m9085005843" y="200.420757"/>
     <use style="fill:#2ca02c;stroke:#2ca02c;" x="321.646743" xlink:href="#m9085005843" y="70.462509"/>
     <use style="fill:#2ca02c;stroke:#2ca02c;" x="299.707871" xlink:href="#m9085005843" y="224.459284"/>
     <use style="fill:#2ca02c;stroke:#2ca02c;" x="262.571839" xlink:href="#m9085005843" y="230.738746"/>
     <use style="fill:#2ca02c;stroke:#2ca02c;" x="266.953693" xlink:href="#m9085005843" y="259.200211"/>
     <use style="fill:#2ca02c;stroke:#2ca02c;" x="346.146409" xlink:href="#m9085005843" y="167.615"/>
     <use style="fill:#2ca02c;stroke:#2ca02c;" x="285.497145" xlink:href="#m9085005843" y="155.987701"/>
     <use style="fill:#2ca02c;stroke:#2ca02c;" x="274.088581" xlink:href="#m9085005843" y="191.463494"/>
     <use style="fill:#2ca02c;stroke:#2ca02c;" x="253.179484" xlink:href="#m9085005843" y="213.710723"/>
     <use style="fill:#2ca02c;stroke:#2ca02c;" x="299.179116" xlink:href="#m9085005843" y="177.534661"/>
     <use style="fill:#2ca02c;stroke:#2ca02c;" x="307.253949" xlink:href="#m9085005843" y="180.951982"/>
     <use style="fill:#2ca02c;stroke:#2ca02c;" x="301.646683" xlink:href="#m9085005843" y="176.796359"/>
     <use style="fill:#2ca02c;stroke:#2ca02c;" x="264.741488" xlink:href="#m9085005843" y="253.026588"/>
     <use style="fill:#2ca02c;stroke:#2ca02c;" x="308.531304" xlink:href="#m9085005843" y="167.026586"/>
     <use style="fill:#2ca02c;stroke:#2ca02c;" x="306.427277" xlink:href="#m9085005843" y="157.053504"/>
     <use style="fill:#2ca02c;stroke:#2ca02c;" x="300.094834" xlink:href="#m9085005843" y="193.410614"/>
     <use style="fill:#2ca02c;stroke:#2ca02c;" x="284.917924" xlink:href="#m9085005843" y="263.88739"/>
     <use style="fill:#2ca02c;stroke:#2ca02c;" x="282.764344" xlink:href="#m9085005843" y="199.883544"/>
     <use style="fill:#2ca02c;stroke:#2ca02c;" x="275.403039" xlink:href="#m9085005843" y="159.135126"/>
     <use style="fill:#2ca02c;stroke:#2ca02c;" x="254.957075" xlink:href="#m9085005843" y="215.992216"/>
    </g>
   </g>
   <g id="patch_3">
    <path clip-path="url(#p0249d6cf8a)" d="M 94.237919 308.912684 
C 100.069144 309.087158 105.945776 297.651633 110.573555 277.124648 
C 115.201335 256.597664 118.202424 228.65516 118.915868 199.451146 
C 119.629311 170.247133 117.99686 142.16599 114.378042 121.392262 
C 110.759225 100.618534 105.449501 88.848305 99.618276 88.673831 
C 93.787051 88.499357 87.910419 99.934883 83.28264 120.461867 
C 78.65486 140.988851 75.653771 168.931356 74.940327 198.13537 
C 74.226884 227.339383 75.859335 255.420526 79.478153 276.194254 
C 83.09697 296.967981 88.406694 308.73821 94.237919 308.912684 
z
" style="fill:#1f77b4;opacity:0.2;"/>
   </g>
   <g id="patch_4">
    <path clip-path="url(#p0249d6cf8a)" d="M 233.792527 343.030636 
C 246.907443 342.725487 259.29047 332.089181 268.214391 313.464242 
C 277.138312 294.839302 281.874529 269.746372 281.379943 243.711879 
C 280.885358 217.677385 275.200351 192.826929 265.576981 174.633535 
C 255.95361 156.440141 243.177581 146.389219 230.062665 146.694368 
C 216.947749 146.999516 204.564722 157.635822 195.6408 176.260762 
C 186.716879 194.885701 181.980663 219.978631 182.475249 246.013125 
C 182.969834 272.047618 188.654841 296.898074 198.278211 315.091468 
C 207.901582 333.284862 220.677611 343.335784 233.792527 343.030636 
z
" style="fill:#ff7f0e;opacity:0.2;"/>
   </g>
   <g id="patch_5">
    <path clip-path="url(#p0249d6cf8a)" d="M 294.866845 303.552943 
C 310.989672 303.203588 326.261868 291.990505 337.31991 272.383248 
C 348.377952 252.775991 354.319 226.375404 353.834607 198.99591 
C 353.350214 171.616417 346.479928 145.49343 334.736851 126.380236 
C 322.993773 107.267042 307.336674 96.724148 291.213847 97.073504 
C 275.091021 97.422859 259.818825 108.635941 248.760783 128.243199 
C 237.70274 147.850456 231.761692 174.251043 232.246086 201.630537 
C 232.730479 229.01003 239.600764 255.133016 251.343842 274.24621 
C 263.08692 293.359404 278.744019 303.902299 294.866845 303.552943 
z
" style="fill:#2ca02c;opacity:0.2;"/>
   </g>
   <g id="matplotlib.axis_1">
    <g id="xtick_1">
     <g id="line2d_1">
      <path clip-path="url(#p0249d6cf8a)" d="M 58.4679 378 
L 58.4679 51.84 
" style="fill:none;stroke:#b0b0b0;stroke-linecap:square;stroke-width:0.8;"/>
     </g>
     <g id="text_1">
      <!-- −3 -->
      <defs>
       <path d="M 10.59375 35.5 
L 73.1875 35.5 
L 73.1875 27.203125 
L 10.59375 27.203125 
z
" id="DejaVuSans-8722"/>
       <path d="M 40.578125 39.3125 
Q 47.65625 37.796875 51.625 33 
Q 55.609375 28.21875 55.609375 21.1875 
Q 55.609375 10.40625 48.1875 4.484375 
Q 40.765625 -1.421875 27.09375 -1.421875 
Q 22.515625 -1.421875 17.65625 -0.515625 
Q 12.796875 0.390625 7.625 2.203125 
L 7.625 11.71875 
Q 11.71875 9.328125 16.59375 8.109375 
Q 21.484375 6.890625 26.8125 6.890625 
Q 36.078125 6.890625 40.9375 10.546875 
Q 45.796875 14.203125 45.796875 21.1875 
Q 45.796875 27.640625 41.28125 31.265625 
Q 36.765625 34.90625 28.71875 34.90625 
L 20.21875 34.90625 
L 20.21875 43.015625 
L 29.109375 43.015625 
Q 36.375 43.015625 40.234375 45.921875 
Q 44.09375 48.828125 44.09375 54.296875 
Q 44.09375 59.90625 40.109375 62.90625 
Q 36.140625 65.921875 28.71875 65.921875 
Q 24.65625 65.921875 20.015625 65.03125 
Q 15.375 64.15625 9.8125 62.3125 
L 9.8125 71.09375 
Q 15.4375 72.65625 20.34375 73.4375 
Q 25.25 74.21875 29.59375 74.21875 
Q 40.828125 74.21875 47.359375 69.109375 
Q 53.90625 64.015625 53.90625 55.328125 
Q 53.90625 49.265625 50.4375 45.09375 
Q 46.96875 40.921875 40.578125 39.3125 
z
" id="DejaVuSans-51"/>
      </defs>
      <g transform="translate(51.096807 392.598437)scale(0.1 -0.1)">
       <use xlink:href="#DejaVuSans-8722"/>
       <use x="83.789062" xlink:href="#DejaVuSans-51"/>
      </g>
     </g>
    </g>
    <g id="xtick_2">
     <g id="line2d_2">
      <path clip-path="url(#p0249d6cf8a)" d="M 108.07816 378 
L 108.07816 51.84 
" style="fill:none;stroke:#b0b0b0;stroke-linecap:square;stroke-width:0.8;"/>
     </g>
     <g id="text_2">
      <!-- −2 -->
      <defs>
       <path d="M 19.1875 8.296875 
L 53.609375 8.296875 
L 53.609375 0 
L 7.328125 0 
L 7.328125 8.296875 
Q 12.9375 14.109375 22.625 23.890625 
Q 32.328125 33.6875 34.8125 36.53125 
Q 39.546875 41.84375 41.421875 45.53125 
Q 43.3125 49.21875 43.3125 52.78125 
Q 43.3125 58.59375 39.234375 62.25 
Q 35.15625 65.921875 28.609375 65.921875 
Q 23.96875 65.921875 18.8125 64.3125 
Q 13.671875 62.703125 7.8125 59.421875 
L 7.8125 69.390625 
Q 13.765625 71.78125 18.9375 73 
Q 24.125 74.21875 28.421875 74.21875 
Q 39.75 74.21875 46.484375 68.546875 
Q 53.21875 62.890625 53.21875 53.421875 
Q 53.21875 48.921875 51.53125 44.890625 
Q 49.859375 40.875 45.40625 35.40625 
Q 44.1875 33.984375 37.640625 27.21875 
Q 31.109375 20.453125 19.1875 8.296875 
z
" id="DejaVuSans-50"/>
      </defs>
      <g transform="translate(100.707066 392.598437)scale(0.1 -0.1)">
       <use xlink:href="#DejaVuSans-8722"/>
       <use x="83.789062" xlink:href="#DejaVuSans-50"/>
      </g>
     </g>
    </g>
    <g id="xtick_3">
     <g id="line2d_3">
      <path clip-path="url(#p0249d6cf8a)" d="M 157.68842 378 
L 157.68842 51.84 
" style="fill:none;stroke:#b0b0b0;stroke-linecap:square;stroke-width:0.8;"/>
     </g>
     <g id="text_3">
      <!-- −1 -->
      <defs>
       <path d="M 12.40625 8.296875 
L 28.515625 8.296875 
L 28.515625 63.921875 
L 10.984375 60.40625 
L 10.984375 69.390625 
L 28.421875 72.90625 
L 38.28125 72.90625 
L 38.28125 8.296875 
L 54.390625 8.296875 
L 54.390625 0 
L 12.40625 0 
z
" id="DejaVuSans-49"/>
      </defs>
      <g transform="translate(150.317326 392.598437)scale(0.1 -0.1)">
       <use xlink:href="#DejaVuSans-8722"/>
       <use x="83.789062" xlink:href="#DejaVuSans-49"/>
      </g>
     </g>
    </g>
    <g id="xtick_4">
     <g id="line2d_4">
      <path clip-path="url(#p0249d6cf8a)" d="M 207.29868 378 
L 207.29868 51.84 
" style="fill:none;stroke:#b0b0b0;stroke-linecap:square;stroke-width:0.8;"/>
     </g>
     <g id="text_4">
      <!-- 0 -->
      <defs>
       <path d="M 31.78125 66.40625 
Q 24.171875 66.40625 20.328125 58.90625 
Q 16.5 51.421875 16.5 36.375 
Q 16.5 21.390625 20.328125 13.890625 
Q 24.171875 6.390625 31.78125 6.390625 
Q 39.453125 6.390625 43.28125 13.890625 
Q 47.125 21.390625 47.125 36.375 
Q 47.125 51.421875 43.28125 58.90625 
Q 39.453125 66.40625 31.78125 66.40625 
z
M 31.78125 74.21875 
Q 44.046875 74.21875 50.515625 64.515625 
Q 56.984375 54.828125 56.984375 36.375 
Q 56.984375 17.96875 50.515625 8.265625 
Q 44.046875 -1.421875 31.78125 -1.421875 
Q 19.53125 -1.421875 13.0625 8.265625 
Q 6.59375 17.96875 6.59375 36.375 
Q 6.59375 54.828125 13.0625 64.515625 
Q 19.53125 74.21875 31.78125 74.21875 
z
" id="DejaVuSans-48"/>
      </defs>
      <g transform="translate(204.11743 392.598437)scale(0.1 -0.1)">
       <use xlink:href="#DejaVuSans-48"/>
      </g>
     </g>
    </g>
    <g id="xtick_5">
     <g id="line2d_5">
      <path clip-path="url(#p0249d6cf8a)" d="M 256.90894 378 
L 256.90894 51.84 
" style="fill:none;stroke:#b0b0b0;stroke-linecap:square;stroke-width:0.8;"/>
     </g>
     <g id="text_5">
      <!-- 1 -->
      <g transform="translate(253.72769 392.598437)scale(0.1 -0.1)">
       <use xlink:href="#DejaVuSans-49"/>
      </g>
     </g>
    </g>
    <g id="xtick_6">
     <g id="line2d_6">
      <path clip-path="url(#p0249d6cf8a)" d="M 306.5192 378 
L 306.5192 51.84 
" style="fill:none;stroke:#b0b0b0;stroke-linecap:square;stroke-width:0.8;"/>
     </g>
     <g id="text_6">
      <!-- 2 -->
      <g transform="translate(303.33795 392.598437)scale(0.1 -0.1)">
       <use xlink:href="#DejaVuSans-50"/>
      </g>
     </g>
    </g>
    <g id="xtick_7">
     <g id="line2d_7">
      <path clip-path="url(#p0249d6cf8a)" d="M 356.12946 378 
L 356.12946 51.84 
" style="fill:none;stroke:#b0b0b0;stroke-linecap:square;stroke-width:0.8;"/>
     </g>
     <g id="text_7">
      <!-- 3 -->
      <g transform="translate(352.94821 392.598437)scale(0.1 -0.1)">
       <use xlink:href="#DejaVuSans-51"/>
      </g>
     </g>
    </g>
    <g id="text_8">
     <!-- Component 0 (72.96% inertia) -->
     <defs>
      <path d="M 64.40625 67.28125 
L 64.40625 56.890625 
Q 59.421875 61.53125 53.78125 63.8125 
Q 48.140625 66.109375 41.796875 66.109375 
Q 29.296875 66.109375 22.65625 58.46875 
Q 16.015625 50.828125 16.015625 36.375 
Q 16.015625 21.96875 22.65625 14.328125 
Q 29.296875 6.6875 41.796875 6.6875 
Q 48.140625 6.6875 53.78125 8.984375 
Q 59.421875 11.28125 64.40625 15.921875 
L 64.40625 5.609375 
Q 59.234375 2.09375 53.4375 0.328125 
Q 47.65625 -1.421875 41.21875 -1.421875 
Q 24.65625 -1.421875 15.125 8.703125 
Q 5.609375 18.84375 5.609375 36.375 
Q 5.609375 53.953125 15.125 64.078125 
Q 24.65625 74.21875 41.21875 74.21875 
Q 47.75 74.21875 53.53125 72.484375 
Q 59.328125 70.75 64.40625 67.28125 
z
" id="DejaVuSans-67"/>
      <path d="M 30.609375 48.390625 
Q 23.390625 48.390625 19.1875 42.75 
Q 14.984375 37.109375 14.984375 27.296875 
Q 14.984375 17.484375 19.15625 11.84375 
Q 23.34375 6.203125 30.609375 6.203125 
Q 37.796875 6.203125 41.984375 11.859375 
Q 46.1875 17.53125 46.1875 27.296875 
Q 46.1875 37.015625 41.984375 42.703125 
Q 37.796875 48.390625 30.609375 48.390625 
z
M 30.609375 56 
Q 42.328125 56 49.015625 48.375 
Q 55.71875 40.765625 55.71875 27.296875 
Q 55.71875 13.875 49.015625 6.21875 
Q 42.328125 -1.421875 30.609375 -1.421875 
Q 18.84375 -1.421875 12.171875 6.21875 
Q 5.515625 13.875 5.515625 27.296875 
Q 5.515625 40.765625 12.171875 48.375 
Q 18.84375 56 30.609375 56 
z
" id="DejaVuSans-111"/>
      <path d="M 52 44.1875 
Q 55.375 50.25 60.0625 53.125 
Q 64.75 56 71.09375 56 
Q 79.640625 56 84.28125 50.015625 
Q 88.921875 44.046875 88.921875 33.015625 
L 88.921875 0 
L 79.890625 0 
L 79.890625 32.71875 
Q 79.890625 40.578125 77.09375 44.375 
Q 74.3125 48.1875 68.609375 48.1875 
Q 61.625 48.1875 57.5625 43.546875 
Q 53.515625 38.921875 53.515625 30.90625 
L 53.515625 0 
L 44.484375 0 
L 44.484375 32.71875 
Q 44.484375 40.625 41.703125 44.40625 
Q 38.921875 48.1875 33.109375 48.1875 
Q 26.21875 48.1875 22.15625 43.53125 
Q 18.109375 38.875 18.109375 30.90625 
L 18.109375 0 
L 9.078125 0 
L 9.078125 54.6875 
L 18.109375 54.6875 
L 18.109375 46.1875 
Q 21.1875 51.21875 25.484375 53.609375 
Q 29.78125 56 35.6875 56 
Q 41.65625 56 45.828125 52.96875 
Q 50 49.953125 52 44.1875 
z
" id="DejaVuSans-109"/>
      <path d="M 18.109375 8.203125 
L 18.109375 -20.796875 
L 9.078125 -20.796875 
L 9.078125 54.6875 
L 18.109375 54.6875 
L 18.109375 46.390625 
Q 20.953125 51.265625 25.265625 53.625 
Q 29.59375 56 35.59375 56 
Q 45.5625 56 51.78125 48.09375 
Q 58.015625 40.1875 58.015625 27.296875 
Q 58.015625 14.40625 51.78125 6.484375 
Q 45.5625 -1.421875 35.59375 -1.421875 
Q 29.59375 -1.421875 25.265625 0.953125 
Q 20.953125 3.328125 18.109375 8.203125 
z
M 48.6875 27.296875 
Q 48.6875 37.203125 44.609375 42.84375 
Q 40.53125 48.484375 33.40625 48.484375 
Q 26.265625 48.484375 22.1875 42.84375 
Q 18.109375 37.203125 18.109375 27.296875 
Q 18.109375 17.390625 22.1875 11.75 
Q 26.265625 6.109375 33.40625 6.109375 
Q 40.53125 6.109375 44.609375 11.75 
Q 48.6875 17.390625 48.6875 27.296875 
z
" id="DejaVuSans-112"/>
      <path d="M 54.890625 33.015625 
L 54.890625 0 
L 45.90625 0 
L 45.90625 32.71875 
Q 45.90625 40.484375 42.875 44.328125 
Q 39.84375 48.1875 33.796875 48.1875 
Q 26.515625 48.1875 22.3125 43.546875 
Q 18.109375 38.921875 18.109375 30.90625 
L 18.109375 0 
L 9.078125 0 
L 9.078125 54.6875 
L 18.109375 54.6875 
L 18.109375 46.1875 
Q 21.34375 51.125 25.703125 53.5625 
Q 30.078125 56 35.796875 56 
Q 45.21875 56 50.046875 50.171875 
Q 54.890625 44.34375 54.890625 33.015625 
z
" id="DejaVuSans-110"/>
      <path d="M 56.203125 29.59375 
L 56.203125 25.203125 
L 14.890625 25.203125 
Q 15.484375 15.921875 20.484375 11.0625 
Q 25.484375 6.203125 34.421875 6.203125 
Q 39.59375 6.203125 44.453125 7.46875 
Q 49.3125 8.734375 54.109375 11.28125 
L 54.109375 2.78125 
Q 49.265625 0.734375 44.1875 -0.34375 
Q 39.109375 -1.421875 33.890625 -1.421875 
Q 20.796875 -1.421875 13.15625 6.1875 
Q 5.515625 13.8125 5.515625 26.8125 
Q 5.515625 40.234375 12.765625 48.109375 
Q 20.015625 56 32.328125 56 
Q 43.359375 56 49.78125 48.890625 
Q 56.203125 41.796875 56.203125 29.59375 
z
M 47.21875 32.234375 
Q 47.125 39.59375 43.09375 43.984375 
Q 39.0625 48.390625 32.421875 48.390625 
Q 24.90625 48.390625 20.390625 44.140625 
Q 15.875 39.890625 15.1875 32.171875 
z
" id="DejaVuSans-101"/>
      <path d="M 18.3125 70.21875 
L 18.3125 54.6875 
L 36.8125 54.6875 
L 36.8125 47.703125 
L 18.3125 47.703125 
L 18.3125 18.015625 
Q 18.3125 11.328125 20.140625 9.421875 
Q 21.96875 7.515625 27.59375 7.515625 
L 36.8125 7.515625 
L 36.8125 0 
L 27.59375 0 
Q 17.1875 0 13.234375 3.875 
Q 9.28125 7.765625 9.28125 18.015625 
L 9.28125 47.703125 
L 2.6875 47.703125 
L 2.6875 54.6875 
L 9.28125 54.6875 
L 9.28125 70.21875 
z
" id="DejaVuSans-116"/>
      <path id="DejaVuSans-32"/>
      <path d="M 31 75.875 
Q 24.46875 64.65625 21.28125 53.65625 
Q 18.109375 42.671875 18.109375 31.390625 
Q 18.109375 20.125 21.3125 9.0625 
Q 24.515625 -2 31 -13.1875 
L 23.1875 -13.1875 
Q 15.875 -1.703125 12.234375 9.375 
Q 8.59375 20.453125 8.59375 31.390625 
Q 8.59375 42.28125 12.203125 53.3125 
Q 15.828125 64.359375 23.1875 75.875 
z
" id="DejaVuSans-40"/>
      <path d="M 8.203125 72.90625 
L 55.078125 72.90625 
L 55.078125 68.703125 
L 28.609375 0 
L 18.3125 0 
L 43.21875 64.59375 
L 8.203125 64.59375 
z
" id="DejaVuSans-55"/>
      <path d="M 10.6875 12.40625 
L 21 12.40625 
L 21 0 
L 10.6875 0 
z
" id="DejaVuSans-46"/>
      <path d="M 10.984375 1.515625 
L 10.984375 10.5 
Q 14.703125 8.734375 18.5 7.8125 
Q 22.3125 6.890625 25.984375 6.890625 
Q 35.75 6.890625 40.890625 13.453125 
Q 46.046875 20.015625 46.78125 33.40625 
Q 43.953125 29.203125 39.59375 26.953125 
Q 35.25 24.703125 29.984375 24.703125 
Q 19.046875 24.703125 12.671875 31.3125 
Q 6.296875 37.9375 6.296875 49.421875 
Q 6.296875 60.640625 12.9375 67.421875 
Q 19.578125 74.21875 30.609375 74.21875 
Q 43.265625 74.21875 49.921875 64.515625 
Q 56.59375 54.828125 56.59375 36.375 
Q 56.59375 19.140625 48.40625 8.859375 
Q 40.234375 -1.421875 26.421875 -1.421875 
Q 22.703125 -1.421875 18.890625 -0.6875 
Q 15.09375 0.046875 10.984375 1.515625 
z
M 30.609375 32.421875 
Q 37.25 32.421875 41.125 36.953125 
Q 45.015625 41.5 45.015625 49.421875 
Q 45.015625 57.28125 41.125 61.84375 
Q 37.25 66.40625 30.609375 66.40625 
Q 23.96875 66.40625 20.09375 61.84375 
Q 16.21875 57.28125 16.21875 49.421875 
Q 16.21875 41.5 20.09375 36.953125 
Q 23.96875 32.421875 30.609375 32.421875 
z
" id="DejaVuSans-57"/>
      <path d="M 33.015625 40.375 
Q 26.375 40.375 22.484375 35.828125 
Q 18.609375 31.296875 18.609375 23.390625 
Q 18.609375 15.53125 22.484375 10.953125 
Q 26.375 6.390625 33.015625 6.390625 
Q 39.65625 6.390625 43.53125 10.953125 
Q 47.40625 15.53125 47.40625 23.390625 
Q 47.40625 31.296875 43.53125 35.828125 
Q 39.65625 40.375 33.015625 40.375 
z
M 52.59375 71.296875 
L 52.59375 62.3125 
Q 48.875 64.0625 45.09375 64.984375 
Q 41.3125 65.921875 37.59375 65.921875 
Q 27.828125 65.921875 22.671875 59.328125 
Q 17.53125 52.734375 16.796875 39.40625 
Q 19.671875 43.65625 24.015625 45.921875 
Q 28.375 48.1875 33.59375 48.1875 
Q 44.578125 48.1875 50.953125 41.515625 
Q 57.328125 34.859375 57.328125 23.390625 
Q 57.328125 12.15625 50.6875 5.359375 
Q 44.046875 -1.421875 33.015625 -1.421875 
Q 20.359375 -1.421875 13.671875 8.265625 
Q 6.984375 17.96875 6.984375 36.375 
Q 6.984375 53.65625 15.1875 63.9375 
Q 23.390625 74.21875 37.203125 74.21875 
Q 40.921875 74.21875 44.703125 73.484375 
Q 48.484375 72.75 52.59375 71.296875 
z
" id="DejaVuSans-54"/>
      <path d="M 72.703125 32.078125 
Q 68.453125 32.078125 66.03125 28.46875 
Q 63.625 24.859375 63.625 18.40625 
Q 63.625 12.0625 66.03125 8.421875 
Q 68.453125 4.78125 72.703125 4.78125 
Q 76.859375 4.78125 79.265625 8.421875 
Q 81.6875 12.0625 81.6875 18.40625 
Q 81.6875 24.8125 79.265625 28.4375 
Q 76.859375 32.078125 72.703125 32.078125 
z
M 72.703125 38.28125 
Q 80.421875 38.28125 84.953125 32.90625 
Q 89.5 27.546875 89.5 18.40625 
Q 89.5 9.28125 84.9375 3.921875 
Q 80.375 -1.421875 72.703125 -1.421875 
Q 64.890625 -1.421875 60.34375 3.921875 
Q 55.8125 9.28125 55.8125 18.40625 
Q 55.8125 27.59375 60.375 32.9375 
Q 64.9375 38.28125 72.703125 38.28125 
z
M 22.3125 68.015625 
Q 18.109375 68.015625 15.6875 64.375 
Q 13.28125 60.75 13.28125 54.390625 
Q 13.28125 47.953125 15.671875 44.328125 
Q 18.0625 40.71875 22.3125 40.71875 
Q 26.5625 40.71875 28.96875 44.328125 
Q 31.390625 47.953125 31.390625 54.390625 
Q 31.390625 60.6875 28.953125 64.34375 
Q 26.515625 68.015625 22.3125 68.015625 
z
M 66.40625 74.21875 
L 74.21875 74.21875 
L 28.609375 -1.421875 
L 20.796875 -1.421875 
z
M 22.3125 74.21875 
Q 30.03125 74.21875 34.609375 68.875 
Q 39.203125 63.53125 39.203125 54.390625 
Q 39.203125 45.171875 34.640625 39.84375 
Q 30.078125 34.515625 22.3125 34.515625 
Q 14.546875 34.515625 10.03125 39.859375 
Q 5.515625 45.21875 5.515625 54.390625 
Q 5.515625 63.484375 10.046875 68.84375 
Q 14.59375 74.21875 22.3125 74.21875 
z
" id="DejaVuSans-37"/>
      <path d="M 9.421875 54.6875 
L 18.40625 54.6875 
L 18.40625 0 
L 9.421875 0 
z
M 9.421875 75.984375 
L 18.40625 75.984375 
L 18.40625 64.59375 
L 9.421875 64.59375 
z
" id="DejaVuSans-105"/>
      <path d="M 41.109375 46.296875 
Q 39.59375 47.171875 37.8125 47.578125 
Q 36.03125 48 33.890625 48 
Q 26.265625 48 22.1875 43.046875 
Q 18.109375 38.09375 18.109375 28.8125 
L 18.109375 0 
L 9.078125 0 
L 9.078125 54.6875 
L 18.109375 54.6875 
L 18.109375 46.1875 
Q 20.953125 51.171875 25.484375 53.578125 
Q 30.03125 56 36.53125 56 
Q 37.453125 56 38.578125 55.875 
Q 39.703125 55.765625 41.0625 55.515625 
z
" id="DejaVuSans-114"/>
      <path d="M 34.28125 27.484375 
Q 23.390625 27.484375 19.1875 25 
Q 14.984375 22.515625 14.984375 16.5 
Q 14.984375 11.71875 18.140625 8.90625 
Q 21.296875 6.109375 26.703125 6.109375 
Q 34.1875 6.109375 38.703125 11.40625 
Q 43.21875 16.703125 43.21875 25.484375 
L 43.21875 27.484375 
z
M 52.203125 31.203125 
L 52.203125 0 
L 43.21875 0 
L 43.21875 8.296875 
Q 40.140625 3.328125 35.546875 0.953125 
Q 30.953125 -1.421875 24.3125 -1.421875 
Q 15.921875 -1.421875 10.953125 3.296875 
Q 6 8.015625 6 15.921875 
Q 6 25.140625 12.171875 29.828125 
Q 18.359375 34.515625 30.609375 34.515625 
L 43.21875 34.515625 
L 43.21875 35.40625 
Q 43.21875 41.609375 39.140625 45 
Q 35.0625 48.390625 27.6875 48.390625 
Q 23 48.390625 18.546875 47.265625 
Q 14.109375 46.140625 10.015625 43.890625 
L 10.015625 52.203125 
Q 14.9375 54.109375 19.578125 55.046875 
Q 24.21875 56 28.609375 56 
Q 40.484375 56 46.34375 49.84375 
Q 52.203125 43.703125 52.203125 31.203125 
z
" id="DejaVuSans-97"/>
      <path d="M 8.015625 75.875 
L 15.828125 75.875 
Q 23.140625 64.359375 26.78125 53.3125 
Q 30.421875 42.28125 30.421875 31.390625 
Q 30.421875 20.453125 26.78125 9.375 
Q 23.140625 -1.703125 15.828125 -13.1875 
L 8.015625 -13.1875 
Q 14.5 -2 17.703125 9.0625 
Q 20.90625 20.125 20.90625 31.390625 
Q 20.90625 42.671875 17.703125 53.65625 
Q 14.5 64.65625 8.015625 75.875 
z
" id="DejaVuSans-41"/>
     </defs>
     <g transform="translate(145.353125 406.276563)scale(0.1 -0.1)">
      <use xlink:href="#DejaVuSans-67"/>
      <use x="69.824219" xlink:href="#DejaVuSans-111"/>
      <use x="131.005859" xlink:href="#DejaVuSans-109"/>
      <use x="228.417969" xlink:href="#DejaVuSans-112"/>
      <use x="291.894531" xlink:href="#DejaVuSans-111"/>
      <use x="353.076172" xlink:href="#DejaVuSans-110"/>
      <use x="416.455078" xlink:href="#DejaVuSans-101"/>
      <use x="477.978516" xlink:href="#DejaVuSans-110"/>
      <use x="541.357422" xlink:href="#DejaVuSans-116"/>
      <use x="580.566406" xlink:href="#DejaVuSans-32"/>
      <use x="612.353516" xlink:href="#DejaVuSans-48"/>
      <use x="675.976562" xlink:href="#DejaVuSans-32"/>
      <use x="707.763672" xlink:href="#DejaVuSans-40"/>
      <use x="746.777344" xlink:href="#DejaVuSans-55"/>
      <use x="810.400391" xlink:href="#DejaVuSans-50"/>
      <use x="874.023438" xlink:href="#DejaVuSans-46"/>
      <use x="905.810547" xlink:href="#DejaVuSans-57"/>
      <use x="969.433594" xlink:href="#DejaVuSans-54"/>
      <use x="1033.056641" xlink:href="#DejaVuSans-37"/>
      <use x="1128.076172" xlink:href="#DejaVuSans-32"/>
      <use x="1159.863281" xlink:href="#DejaVuSans-105"/>
      <use x="1187.646484" xlink:href="#DejaVuSans-110"/>
      <use x="1251.025391" xlink:href="#DejaVuSans-101"/>
      <use x="1312.548828" xlink:href="#DejaVuSans-114"/>
      <use x="1353.662109" xlink:href="#DejaVuSans-116"/>
      <use x="1392.871094" xlink:href="#DejaVuSans-105"/>
      <use x="1420.654297" xlink:href="#DejaVuSans-97"/>
      <use x="1481.933594" xlink:href="#DejaVuSans-41"/>
     </g>
    </g>
   </g>
   <g id="matplotlib.axis_2">
    <g id="ytick_1">
     <g id="line2d_8">
      <path clip-path="url(#p0249d6cf8a)" d="M 54 324.462922 
L 388.8 324.462922 
" style="fill:none;stroke:#b0b0b0;stroke-linecap:square;stroke-width:0.8;"/>
     </g>
     <g id="text_9">
      <!-- −2 -->
      <g transform="translate(32.257812 328.262141)scale(0.1 -0.1)">
       <use xlink:href="#DejaVuSans-8722"/>
       <use x="83.789062" xlink:href="#DejaVuSans-50"/>
      </g>
     </g>
    </g>
    <g id="ytick_2">
     <g id="line2d_9">
      <path clip-path="url(#p0249d6cf8a)" d="M 54 269.559625 
L 388.8 269.559625 
" style="fill:none;stroke:#b0b0b0;stroke-linecap:square;stroke-width:0.8;"/>
     </g>
     <g id="text_10">
      <!-- −1 -->
      <g transform="translate(32.257812 273.358844)scale(0.1 -0.1)">
       <use xlink:href="#DejaVuSans-8722"/>
       <use x="83.789062" xlink:href="#DejaVuSans-49"/>
      </g>
     </g>
    </g>
    <g id="ytick_3">
     <g id="line2d_10">
      <path clip-path="url(#p0249d6cf8a)" d="M 54 214.656328 
L 388.8 214.656328 
" style="fill:none;stroke:#b0b0b0;stroke-linecap:square;stroke-width:0.8;"/>
     </g>
     <g id="text_11">
      <!-- 0 -->
      <g transform="translate(40.6375 218.455546)scale(0.1 -0.1)">
       <use xlink:href="#DejaVuSans-48"/>
      </g>
     </g>
    </g>
    <g id="ytick_4">
     <g id="line2d_11">
      <path clip-path="url(#p0249d6cf8a)" d="M 54 159.75303 
L 388.8 159.75303 
" style="fill:none;stroke:#b0b0b0;stroke-linecap:square;stroke-width:0.8;"/>
     </g>
     <g id="text_12">
      <!-- 1 -->
      <g transform="translate(40.6375 163.552249)scale(0.1 -0.1)">
       <use xlink:href="#DejaVuSans-49"/>
      </g>
     </g>
    </g>
    <g id="ytick_5">
     <g id="line2d_12">
      <path clip-path="url(#p0249d6cf8a)" d="M 54 104.849733 
L 388.8 104.849733 
" style="fill:none;stroke:#b0b0b0;stroke-linecap:square;stroke-width:0.8;"/>
     </g>
     <g id="text_13">
      <!-- 2 -->
      <g transform="translate(40.6375 108.648952)scale(0.1 -0.1)">
       <use xlink:href="#DejaVuSans-50"/>
      </g>
     </g>
    </g>
    <g id="text_14">
     <!-- Component 1 (22.85% inertia) -->
     <defs>
      <path d="M 31.78125 34.625 
Q 24.75 34.625 20.71875 30.859375 
Q 16.703125 27.09375 16.703125 20.515625 
Q 16.703125 13.921875 20.71875 10.15625 
Q 24.75 6.390625 31.78125 6.390625 
Q 38.8125 6.390625 42.859375 10.171875 
Q 46.921875 13.96875 46.921875 20.515625 
Q 46.921875 27.09375 42.890625 30.859375 
Q 38.875 34.625 31.78125 34.625 
z
M 21.921875 38.8125 
Q 15.578125 40.375 12.03125 44.71875 
Q 8.5 49.078125 8.5 55.328125 
Q 8.5 64.0625 14.71875 69.140625 
Q 20.953125 74.21875 31.78125 74.21875 
Q 42.671875 74.21875 48.875 69.140625 
Q 55.078125 64.0625 55.078125 55.328125 
Q 55.078125 49.078125 51.53125 44.71875 
Q 48 40.375 41.703125 38.8125 
Q 48.828125 37.15625 52.796875 32.3125 
Q 56.78125 27.484375 56.78125 20.515625 
Q 56.78125 9.90625 50.3125 4.234375 
Q 43.84375 -1.421875 31.78125 -1.421875 
Q 19.734375 -1.421875 13.25 4.234375 
Q 6.78125 9.90625 6.78125 20.515625 
Q 6.78125 27.484375 10.78125 32.3125 
Q 14.796875 37.15625 21.921875 38.8125 
z
M 18.3125 54.390625 
Q 18.3125 48.734375 21.84375 45.5625 
Q 25.390625 42.390625 31.78125 42.390625 
Q 38.140625 42.390625 41.71875 45.5625 
Q 45.3125 48.734375 45.3125 54.390625 
Q 45.3125 60.0625 41.71875 63.234375 
Q 38.140625 66.40625 31.78125 66.40625 
Q 25.390625 66.40625 21.84375 63.234375 
Q 18.3125 60.0625 18.3125 54.390625 
z
" id="DejaVuSans-56"/>
      <path d="M 10.796875 72.90625 
L 49.515625 72.90625 
L 49.515625 64.59375 
L 19.828125 64.59375 
L 19.828125 46.734375 
Q 21.96875 47.46875 24.109375 47.828125 
Q 26.265625 48.1875 28.421875 48.1875 
Q 40.625 48.1875 47.75 41.5 
Q 54.890625 34.8125 54.890625 23.390625 
Q 54.890625 11.625 47.5625 5.09375 
Q 40.234375 -1.421875 26.90625 -1.421875 
Q 22.3125 -1.421875 17.546875 -0.640625 
Q 12.796875 0.140625 7.71875 1.703125 
L 7.71875 11.625 
Q 12.109375 9.234375 16.796875 8.0625 
Q 21.484375 6.890625 26.703125 6.890625 
Q 35.15625 6.890625 40.078125 11.328125 
Q 45.015625 15.765625 45.015625 23.390625 
Q 45.015625 31 40.078125 35.4375 
Q 35.15625 39.890625 26.703125 39.890625 
Q 22.75 39.890625 18.8125 39.015625 
Q 14.890625 38.140625 10.796875 36.28125 
z
" id="DejaVuSans-53"/>
     </defs>
     <g transform="translate(26.178125 290.966875)rotate(-90)scale(0.1 -0.1)">
      <use xlink:href="#DejaVuSans-67"/>
      <use x="69.824219" xlink:href="#DejaVuSans-111"/>
      <use x="131.005859" xlink:href="#DejaVuSans-109"/>
      <use x="228.417969" xlink:href="#DejaVuSans-112"/>
      <use x="291.894531" xlink:href="#DejaVuSans-111"/>
      <use x="353.076172" xlink:href="#DejaVuSans-110"/>
      <use x="416.455078" xlink:href="#DejaVuSans-101"/>
      <use x="477.978516" xlink:href="#DejaVuSans-110"/>
      <use x="541.357422" xlink:href="#DejaVuSans-116"/>
      <use x="580.566406" xlink:href="#DejaVuSans-32"/>
      <use x="612.353516" xlink:href="#DejaVuSans-49"/>
      <use x="675.976562" xlink:href="#DejaVuSans-32"/>
      <use x="707.763672" xlink:href="#DejaVuSans-40"/>
      <use x="746.777344" xlink:href="#DejaVuSans-50"/>
      <use x="810.400391" xlink:href="#DejaVuSans-50"/>
      <use x="874.023438" xlink:href="#DejaVuSans-46"/>
      <use x="905.810547" xlink:href="#DejaVuSans-56"/>
      <use x="969.433594" xlink:href="#DejaVuSans-53"/>
      <use x="1033.056641" xlink:href="#DejaVuSans-37"/>
      <use x="1128.076172" xlink:href="#DejaVuSans-32"/>
      <use x="1159.863281" xlink:href="#DejaVuSans-105"/>
      <use x="1187.646484" xlink:href="#DejaVuSans-110"/>
      <use x="1251.025391" xlink:href="#DejaVuSans-101"/>
      <use x="1312.548828" xlink:href="#DejaVuSans-114"/>
      <use x="1353.662109" xlink:href="#DejaVuSans-116"/>
      <use x="1392.871094" xlink:href="#DejaVuSans-105"/>
      <use x="1420.654297" xlink:href="#DejaVuSans-97"/>
      <use x="1481.933594" xlink:href="#DejaVuSans-41"/>
     </g>
    </g>
   </g>
   <g id="line2d_13">
    <path clip-path="url(#p0249d6cf8a)" d="M 54 214.656328 
L 388.8 214.656328 
" style="fill:none;stroke:#404040;stroke-linecap:square;stroke-opacity:0.6;stroke-width:1.2;"/>
   </g>
   <g id="line2d_14">
    <path clip-path="url(#p0249d6cf8a)" d="M 207.29868 378 
L 207.29868 51.84 
" style="fill:none;stroke:#404040;stroke-linecap:square;stroke-opacity:0.6;stroke-width:1.2;"/>
   </g>
   <g id="patch_6">
    <path d="M 54 378 
L 54 51.84 
" style="fill:none;stroke:#000000;stroke-linecap:square;stroke-linejoin:miter;stroke-width:0.8;"/>
   </g>
   <g id="patch_7">
    <path d="M 388.8 378 
L 388.8 51.84 
" style="fill:none;stroke:#000000;stroke-linecap:square;stroke-linejoin:miter;stroke-width:0.8;"/>
   </g>
   <g id="patch_8">
    <path d="M 54 378 
L 388.8 378 
" style="fill:none;stroke:#000000;stroke-linecap:square;stroke-linejoin:miter;stroke-width:0.8;"/>
   </g>
   <g id="patch_9">
    <path d="M 54 51.84 
L 388.8 51.84 
" style="fill:none;stroke:#000000;stroke-linecap:square;stroke-linejoin:miter;stroke-width:0.8;"/>
   </g>
   <g id="text_15">
    <!-- Row principal coordinates -->
    <defs>
     <path d="M 44.390625 34.1875 
Q 47.5625 33.109375 50.5625 29.59375 
Q 53.5625 26.078125 56.59375 19.921875 
L 66.609375 0 
L 56 0 
L 46.6875 18.703125 
Q 43.0625 26.03125 39.671875 28.421875 
Q 36.28125 30.8125 30.421875 30.8125 
L 19.671875 30.8125 
L 19.671875 0 
L 9.8125 0 
L 9.8125 72.90625 
L 32.078125 72.90625 
Q 44.578125 72.90625 50.734375 67.671875 
Q 56.890625 62.453125 56.890625 51.90625 
Q 56.890625 45.015625 53.6875 40.46875 
Q 50.484375 35.9375 44.390625 34.1875 
z
M 19.671875 64.796875 
L 19.671875 38.921875 
L 32.078125 38.921875 
Q 39.203125 38.921875 42.84375 42.21875 
Q 46.484375 45.515625 46.484375 51.90625 
Q 46.484375 58.296875 42.84375 61.546875 
Q 39.203125 64.796875 32.078125 64.796875 
z
" id="DejaVuSans-82"/>
     <path d="M 4.203125 54.6875 
L 13.1875 54.6875 
L 24.421875 12.015625 
L 35.59375 54.6875 
L 46.1875 54.6875 
L 57.421875 12.015625 
L 68.609375 54.6875 
L 77.59375 54.6875 
L 63.28125 0 
L 52.6875 0 
L 40.921875 44.828125 
L 29.109375 0 
L 18.5 0 
z
" id="DejaVuSans-119"/>
     <path d="M 48.78125 52.59375 
L 48.78125 44.1875 
Q 44.96875 46.296875 41.140625 47.34375 
Q 37.3125 48.390625 33.40625 48.390625 
Q 24.65625 48.390625 19.8125 42.84375 
Q 14.984375 37.3125 14.984375 27.296875 
Q 14.984375 17.28125 19.8125 11.734375 
Q 24.65625 6.203125 33.40625 6.203125 
Q 37.3125 6.203125 41.140625 7.25 
Q 44.96875 8.296875 48.78125 10.40625 
L 48.78125 2.09375 
Q 45.015625 0.34375 40.984375 -0.53125 
Q 36.96875 -1.421875 32.421875 -1.421875 
Q 20.0625 -1.421875 12.78125 6.34375 
Q 5.515625 14.109375 5.515625 27.296875 
Q 5.515625 40.671875 12.859375 48.328125 
Q 20.21875 56 33.015625 56 
Q 37.15625 56 41.109375 55.140625 
Q 45.0625 54.296875 48.78125 52.59375 
z
" id="DejaVuSans-99"/>
     <path d="M 9.421875 75.984375 
L 18.40625 75.984375 
L 18.40625 0 
L 9.421875 0 
z
" id="DejaVuSans-108"/>
     <path d="M 45.40625 46.390625 
L 45.40625 75.984375 
L 54.390625 75.984375 
L 54.390625 0 
L 45.40625 0 
L 45.40625 8.203125 
Q 42.578125 3.328125 38.25 0.953125 
Q 33.9375 -1.421875 27.875 -1.421875 
Q 17.96875 -1.421875 11.734375 6.484375 
Q 5.515625 14.40625 5.515625 27.296875 
Q 5.515625 40.1875 11.734375 48.09375 
Q 17.96875 56 27.875 56 
Q 33.9375 56 38.25 53.625 
Q 42.578125 51.265625 45.40625 46.390625 
z
M 14.796875 27.296875 
Q 14.796875 17.390625 18.875 11.75 
Q 22.953125 6.109375 30.078125 6.109375 
Q 37.203125 6.109375 41.296875 11.75 
Q 45.40625 17.390625 45.40625 27.296875 
Q 45.40625 37.203125 41.296875 42.84375 
Q 37.203125 48.484375 30.078125 48.484375 
Q 22.953125 48.484375 18.875 42.84375 
Q 14.796875 37.203125 14.796875 27.296875 
z
" id="DejaVuSans-100"/>
     <path d="M 44.28125 53.078125 
L 44.28125 44.578125 
Q 40.484375 46.53125 36.375 47.5 
Q 32.28125 48.484375 27.875 48.484375 
Q 21.1875 48.484375 17.84375 46.4375 
Q 14.5 44.390625 14.5 40.28125 
Q 14.5 37.15625 16.890625 35.375 
Q 19.28125 33.59375 26.515625 31.984375 
L 29.59375 31.296875 
Q 39.15625 29.25 43.1875 25.515625 
Q 47.21875 21.78125 47.21875 15.09375 
Q 47.21875 7.46875 41.1875 3.015625 
Q 35.15625 -1.421875 24.609375 -1.421875 
Q 20.21875 -1.421875 15.453125 -0.5625 
Q 10.6875 0.296875 5.421875 2 
L 5.421875 11.28125 
Q 10.40625 8.6875 15.234375 7.390625 
Q 20.0625 6.109375 24.8125 6.109375 
Q 31.15625 6.109375 34.5625 8.28125 
Q 37.984375 10.453125 37.984375 14.40625 
Q 37.984375 18.0625 35.515625 20.015625 
Q 33.0625 21.96875 24.703125 23.78125 
L 21.578125 24.515625 
Q 13.234375 26.265625 9.515625 29.90625 
Q 5.8125 33.546875 5.8125 39.890625 
Q 5.8125 47.609375 11.28125 51.796875 
Q 16.75 56 26.8125 56 
Q 31.78125 56 36.171875 55.265625 
Q 40.578125 54.546875 44.28125 53.078125 
z
" id="DejaVuSans-115"/>
    </defs>
    <g transform="translate(143.746875 45.84)scale(0.12 -0.12)">
     <use xlink:href="#DejaVuSans-82"/>
     <use x="69.419922" xlink:href="#DejaVuSans-111"/>
     <use x="130.601562" xlink:href="#DejaVuSans-119"/>
     <use x="212.388672" xlink:href="#DejaVuSans-32"/>
     <use x="244.175781" xlink:href="#DejaVuSans-112"/>
     <use x="307.652344" xlink:href="#DejaVuSans-114"/>
     <use x="348.765625" xlink:href="#DejaVuSans-105"/>
     <use x="376.548828" xlink:href="#DejaVuSans-110"/>
     <use x="439.927734" xlink:href="#DejaVuSans-99"/>
     <use x="494.908203" xlink:href="#DejaVuSans-105"/>
     <use x="522.691406" xlink:href="#DejaVuSans-112"/>
     <use x="586.167969" xlink:href="#DejaVuSans-97"/>
     <use x="647.447266" xlink:href="#DejaVuSans-108"/>
     <use x="675.230469" xlink:href="#DejaVuSans-32"/>
     <use x="707.017578" xlink:href="#DejaVuSans-99"/>
     <use x="761.998047" xlink:href="#DejaVuSans-111"/>
     <use x="823.179688" xlink:href="#DejaVuSans-111"/>
     <use x="884.361328" xlink:href="#DejaVuSans-114"/>
     <use x="925.458984" xlink:href="#DejaVuSans-100"/>
     <use x="988.935547" xlink:href="#DejaVuSans-105"/>
     <use x="1016.71875" xlink:href="#DejaVuSans-110"/>
     <use x="1080.097656" xlink:href="#DejaVuSans-97"/>
     <use x="1141.376953" xlink:href="#DejaVuSans-116"/>
     <use x="1180.585938" xlink:href="#DejaVuSans-101"/>
     <use x="1242.109375" xlink:href="#DejaVuSans-115"/>
    </g>
   </g>
   <g id="legend_1">
    <g id="patch_10">
     <path d="M 300.09375 373 
L 381.8 373 
Q 383.8 373 383.8 371 
L 383.8 327.965625 
Q 383.8 325.965625 381.8 325.965625 
L 300.09375 325.965625 
Q 298.09375 325.965625 298.09375 327.965625 
L 298.09375 371 
Q 298.09375 373 300.09375 373 
z
" style="fill:#ffffff;opacity:0.8;stroke:#cccccc;stroke-linejoin:miter;"/>
    </g>
    <g id="PathCollection_4">
     <g>
      <use style="fill:#1f77b4;stroke:#1f77b4;" x="312.09375" xlink:href="#mf1e48e4735" y="334.939062"/>
     </g>
    </g>
    <g id="text_16">
     <!-- Setosa -->
     <defs>
      <path d="M 53.515625 70.515625 
L 53.515625 60.890625 
Q 47.90625 63.578125 42.921875 64.890625 
Q 37.9375 66.21875 33.296875 66.21875 
Q 25.25 66.21875 20.875 63.09375 
Q 16.5 59.96875 16.5 54.203125 
Q 16.5 49.359375 19.40625 46.890625 
Q 22.3125 44.4375 30.421875 42.921875 
L 36.375 41.703125 
Q 47.40625 39.59375 52.65625 34.296875 
Q 57.90625 29 57.90625 20.125 
Q 57.90625 9.515625 50.796875 4.046875 
Q 43.703125 -1.421875 29.984375 -1.421875 
Q 24.8125 -1.421875 18.96875 -0.25 
Q 13.140625 0.921875 6.890625 3.21875 
L 6.890625 13.375 
Q 12.890625 10.015625 18.65625 8.296875 
Q 24.421875 6.59375 29.984375 6.59375 
Q 38.421875 6.59375 43.015625 9.90625 
Q 47.609375 13.234375 47.609375 19.390625 
Q 47.609375 24.75 44.3125 27.78125 
Q 41.015625 30.8125 33.5 32.328125 
L 27.484375 33.5 
Q 16.453125 35.6875 11.515625 40.375 
Q 6.59375 45.0625 6.59375 53.421875 
Q 6.59375 63.09375 13.40625 68.65625 
Q 20.21875 74.21875 32.171875 74.21875 
Q 37.3125 74.21875 42.625 73.28125 
Q 47.953125 72.359375 53.515625 70.515625 
z
" id="DejaVuSans-83"/>
     </defs>
     <g transform="translate(330.09375 337.564062)scale(0.1 -0.1)">
      <use xlink:href="#DejaVuSans-83"/>
      <use x="63.476562" xlink:href="#DejaVuSans-101"/>
      <use x="125" xlink:href="#DejaVuSans-116"/>
      <use x="164.208984" xlink:href="#DejaVuSans-111"/>
      <use x="225.390625" xlink:href="#DejaVuSans-115"/>
      <use x="277.490234" xlink:href="#DejaVuSans-97"/>
     </g>
    </g>
    <g id="PathCollection_5">
     <g>
      <use style="fill:#ff7f0e;stroke:#ff7f0e;" x="312.09375" xlink:href="#m204f18f065" y="349.617188"/>
     </g>
    </g>
    <g id="text_17">
     <!-- Versicolor -->
     <defs>
      <path d="M 28.609375 0 
L 0.78125 72.90625 
L 11.078125 72.90625 
L 34.1875 11.53125 
L 57.328125 72.90625 
L 67.578125 72.90625 
L 39.796875 0 
z
" id="DejaVuSans-86"/>
     </defs>
     <g transform="translate(330.09375 352.242188)scale(0.1 -0.1)">
      <use xlink:href="#DejaVuSans-86"/>
      <use x="68.298828" xlink:href="#DejaVuSans-101"/>
      <use x="129.822266" xlink:href="#DejaVuSans-114"/>
      <use x="170.935547" xlink:href="#DejaVuSans-115"/>
      <use x="223.035156" xlink:href="#DejaVuSans-105"/>
      <use x="250.818359" xlink:href="#DejaVuSans-99"/>
      <use x="305.798828" xlink:href="#DejaVuSans-111"/>
      <use x="366.980469" xlink:href="#DejaVuSans-108"/>
      <use x="394.763672" xlink:href="#DejaVuSans-111"/>
      <use x="455.945312" xlink:href="#DejaVuSans-114"/>
     </g>
    </g>
    <g id="PathCollection_6">
     <g>
      <use style="fill:#2ca02c;stroke:#2ca02c;" x="312.09375" xlink:href="#m9085005843" y="364.295313"/>
     </g>
    </g>
    <g id="text_18">
     <!-- Virginica -->
     <defs>
      <path d="M 45.40625 27.984375 
Q 45.40625 37.75 41.375 43.109375 
Q 37.359375 48.484375 30.078125 48.484375 
Q 22.859375 48.484375 18.828125 43.109375 
Q 14.796875 37.75 14.796875 27.984375 
Q 14.796875 18.265625 18.828125 12.890625 
Q 22.859375 7.515625 30.078125 7.515625 
Q 37.359375 7.515625 41.375 12.890625 
Q 45.40625 18.265625 45.40625 27.984375 
z
M 54.390625 6.78125 
Q 54.390625 -7.171875 48.1875 -13.984375 
Q 42 -20.796875 29.203125 -20.796875 
Q 24.46875 -20.796875 20.265625 -20.09375 
Q 16.0625 -19.390625 12.109375 -17.921875 
L 12.109375 -9.1875 
Q 16.0625 -11.328125 19.921875 -12.34375 
Q 23.78125 -13.375 27.78125 -13.375 
Q 36.625 -13.375 41.015625 -8.765625 
Q 45.40625 -4.15625 45.40625 5.171875 
L 45.40625 9.625 
Q 42.625 4.78125 38.28125 2.390625 
Q 33.9375 0 27.875 0 
Q 17.828125 0 11.671875 7.65625 
Q 5.515625 15.328125 5.515625 27.984375 
Q 5.515625 40.671875 11.671875 48.328125 
Q 17.828125 56 27.875 56 
Q 33.9375 56 38.28125 53.609375 
Q 42.625 51.21875 45.40625 46.390625 
L 45.40625 54.6875 
L 54.390625 54.6875 
z
" id="DejaVuSans-103"/>
     </defs>
     <g transform="translate(330.09375 366.920313)scale(0.1 -0.1)">
      <use xlink:href="#DejaVuSans-86"/>
      <use x="68.376953" xlink:href="#DejaVuSans-105"/>
      <use x="96.160156" xlink:href="#DejaVuSans-114"/>
      <use x="137.257812" xlink:href="#DejaVuSans-103"/>
      <use x="200.734375" xlink:href="#DejaVuSans-105"/>
      <use x="228.517578" xlink:href="#DejaVuSans-110"/>
      <use x="291.896484" xlink:href="#DejaVuSans-105"/>
      <use x="319.679688" xlink:href="#DejaVuSans-99"/>
      <use x="374.660156" xlink:href="#DejaVuSans-97"/>
     </g>
    </g>
   </g>
  </g>
 </g>
 <defs>
  <clipPath id="p0249d6cf8a">
   <rect height="326.16" width="334.8" x="54" y="51.84"/>
  </clipPath>
 </defs>
</svg>
